<?xml version="1.0" encoding="utf-8"?>
<!-- Generator: Adobe Illustrator 22.1.0, SVG Export Plug-In . SVG Version: 6.00 Build 0)  -->
<svg version="1.1" id="Capa_1" xmlns="http://www.w3.org/2000/svg" xmlns:xlink="http://www.w3.org/1999/xlink" x="0px" y="0px"
	 viewBox="0 0 255.1 255.1" style="enable-background:new 0 0 255.1 255.1;" xml:space="preserve">
<style type="text/css">
	.st0{fill:#CCCCCC;}
</style>
<g>
	<g>
		<g>
			<path class="st0" d="M167.7,20.4H87.4c-37,0-67,30-67,67v80.4c0,37,30,67,67,67h80.4c37,0,67-30,67-67V87.4
				C234.7,50.4,204.7,20.4,167.7,20.4z M214.6,167.7c0,25.9-21,46.9-46.9,46.9H87.4c-25.9,0-46.9-21-46.9-46.9V87.4
				c0-25.9,21-46.9,46.9-46.9h80.4c25.9,0,46.9,21,46.9,46.9L214.6,167.7L214.6,167.7z"/>
		</g>
	</g>
	<g>
		<g>
			<path class="st0" d="M127.6,74C98,74,74,97.9,74,127.5s24,53.6,53.6,53.6s53.6-24,53.6-53.6S157.1,74,127.6,74z M127.6,161.1
				c-18.4,0-33.5-15-33.5-33.5c0-18.5,15-33.5,33.5-33.5s33.5,15,33.5,33.5C161.1,146,146,161.1,127.6,161.1z"/>
		</g>
	</g>
	<g>
		<g>
			<circle class="st0" cx="185.2" cy="70" r="7.1"/>
		</g>
	</g>
</g>
</svg>
