<?xml version="1.0" encoding="utf-8"?>
<!-- Generator: Adobe Illustrator 22.1.0, SVG Export Plug-In . SVG Version: 6.00 Build 0)  -->
<svg version="1.1" id="Capa_1" xmlns="http://www.w3.org/2000/svg" xmlns:xlink="http://www.w3.org/1999/xlink" x="0px" y="0px"
	 viewBox="0 0 266.9 266.9" style="enable-background:new 0 0 266.9 266.9;" xml:space="preserve">
<style type="text/css">
	.st0{fill:#CCCCCC;}
</style>
<g>
	<path id="LinkedIn" class="st0" d="M245.4,157.6v82.8h-48v-77.2c0-19.4-6.9-32.6-24.3-32.6c-13.3,0-21.1,8.9-24.6,17.5
		c-1.2,3.1-1.6,7.4-1.6,11.7v80.6h-48c0,0,0.6-130.8,0-144.3h48v20.5c-0.1,0.2-0.2,0.3-0.3,0.5h0.3v-0.5
		c6.4-9.8,17.8-23.8,43.3-23.8C221.7,92.7,245.4,113.3,245.4,157.6z M48.7,26.4c-16.4,0-27.2,10.8-27.2,24.9c0,13.8,10.4,25,26.5,25
		h0.3c16.8,0,27.2-11.1,27.2-24.9C75.2,37.2,65.1,26.4,48.7,26.4z M24.4,240.4h48V96h-48V240.4z"/>
</g>
</svg>
